<mxfile host="app.diagrams.net" agent="Mozilla/5.0 (Windows NT 10.0; Win64; x64) AppleWebKit/537.36 (KHTML, like Gecko) Chrome/128.0.0.0 Safari/537.36 OPR/114.0.0.0" version="25.0.1">
  <diagram name="Page-1" id="AeOsu_AQb8QRxODXpMks">
    <mxGraphModel dx="2523" dy="2448" grid="1" gridSize="10" guides="1" tooltips="1" connect="1" arrows="1" fold="1" page="1" pageScale="1" pageWidth="850" pageHeight="1100" math="0" shadow="0">
      <root>
        <mxCell id="0" />
        <mxCell id="1" parent="0" />
        <mxCell id="8LFbPMQa60XVjXrs2oql-13" value="" style="rounded=0;whiteSpace=wrap;html=1;fontStyle=1" parent="1" vertex="1">
          <mxGeometry x="840" y="-550" width="160" height="60" as="geometry" />
        </mxCell>
        <mxCell id="M61v3jZpd-GNT2IvRQZ2-2" value="" style="ellipse;whiteSpace=wrap;html=1;aspect=fixed;fillColor=#0050ef;strokeColor=#001DBC;fontColor=#ffffff;fontStyle=1" parent="1" vertex="1">
          <mxGeometry x="41" y="-540" width="768" height="768" as="geometry" />
        </mxCell>
        <mxCell id="M61v3jZpd-GNT2IvRQZ2-3" value="" style="ellipse;whiteSpace=wrap;html=1;aspect=fixed;fillColor=#008a00;strokeColor=#005700;fontColor=#ffffff;fontStyle=1" parent="1" vertex="1">
          <mxGeometry x="111" y="-470" width="620" height="620" as="geometry" />
        </mxCell>
        <mxCell id="M61v3jZpd-GNT2IvRQZ2-4" value="" style="ellipse;whiteSpace=wrap;html=1;aspect=fixed;fillColor=#fa6800;strokeColor=#C73500;fontColor=#000000;fontStyle=1" parent="1" vertex="1">
          <mxGeometry x="171" y="-398" width="488" height="488" as="geometry" />
        </mxCell>
        <mxCell id="M61v3jZpd-GNT2IvRQZ2-5" value="" style="ellipse;whiteSpace=wrap;html=1;aspect=fixed;fillColor=#FF0000;strokeColor=#ae4132;fontStyle=1" parent="1" vertex="1">
          <mxGeometry x="251" y="-320" width="340" height="340" as="geometry" />
        </mxCell>
        <mxCell id="8LFbPMQa60XVjXrs2oql-5" value="&lt;font style=&quot;font-size: 23px;&quot;&gt;Page models &amp;amp; Razor pages&lt;/font&gt;" style="text;html=1;align=center;verticalAlign=middle;whiteSpace=wrap;rounded=0;strokeWidth=13;fontStyle=1" parent="1" vertex="1">
          <mxGeometry x="324" y="-550" width="203" height="90" as="geometry" />
        </mxCell>
        <mxCell id="8LFbPMQa60XVjXrs2oql-7" value="&lt;font style=&quot;font-size: 23px;&quot;&gt;Repositories&lt;/font&gt;" style="text;html=1;align=center;verticalAlign=middle;whiteSpace=wrap;rounded=0;fontStyle=1" parent="1" vertex="1">
          <mxGeometry x="341" y="-380" width="160" height="60" as="geometry" />
        </mxCell>
        <mxCell id="8LFbPMQa60XVjXrs2oql-8" value="&lt;font style=&quot;font-size: 23px;&quot;&gt;Services&lt;/font&gt;" style="text;html=1;align=center;verticalAlign=middle;whiteSpace=wrap;rounded=0;fontStyle=1" parent="1" vertex="1">
          <mxGeometry x="363" y="-460" width="125" height="50" as="geometry" />
        </mxCell>
        <mxCell id="8LFbPMQa60XVjXrs2oql-11" value="&lt;font style=&quot;font-size: 30px;&quot; color=&quot;#050505&quot;&gt;Chirp.Web&lt;/font&gt;" style="text;html=1;align=center;verticalAlign=middle;whiteSpace=wrap;rounded=0;fillColor=#0050ef;fontColor=#ffffff;strokeColor=#001DBC;fontStyle=1" parent="1" vertex="1">
          <mxGeometry x="840" y="-550" width="160" height="60" as="geometry" />
        </mxCell>
        <mxCell id="8LFbPMQa60XVjXrs2oql-12" value="" style="endArrow=classic;html=1;rounded=0;fontStyle=1" parent="1" source="8LFbPMQa60XVjXrs2oql-11" target="M61v3jZpd-GNT2IvRQZ2-2" edge="1">
          <mxGeometry width="50" height="50" relative="1" as="geometry">
            <mxPoint x="790" y="-420" as="sourcePoint" />
            <mxPoint x="860" y="-480" as="targetPoint" />
            <Array as="points">
              <mxPoint x="840" y="-460" />
            </Array>
          </mxGeometry>
        </mxCell>
        <mxCell id="8LFbPMQa60XVjXrs2oql-14" value="&lt;font style=&quot;font-size: 30px;&quot; color=&quot;#050505&quot;&gt;Chirp.Infrastructure&lt;/font&gt;" style="text;html=1;align=center;verticalAlign=middle;whiteSpace=wrap;rounded=0;fillColor=#008a00;fontColor=#ffffff;strokeColor=#005700;gradientColor=#FF8000;fontStyle=1" parent="1" vertex="1">
          <mxGeometry x="880" y="-398" width="290" height="80" as="geometry" />
        </mxCell>
        <mxCell id="8LFbPMQa60XVjXrs2oql-15" value="" style="endArrow=classic;html=1;rounded=0;entryX=0.965;entryY=0.313;entryDx=0;entryDy=0;entryPerimeter=0;exitX=-0.013;exitY=0.641;exitDx=0;exitDy=0;exitPerimeter=0;fontStyle=1" parent="1" source="8LFbPMQa60XVjXrs2oql-14" target="M61v3jZpd-GNT2IvRQZ2-4" edge="1">
          <mxGeometry width="50" height="50" relative="1" as="geometry">
            <mxPoint x="620" y="-160" as="sourcePoint" />
            <mxPoint x="670" y="-210" as="targetPoint" />
          </mxGeometry>
        </mxCell>
        <mxCell id="8LFbPMQa60XVjXrs2oql-16" value="" style="endArrow=classic;html=1;rounded=0;entryX=0.987;entryY=0.417;entryDx=0;entryDy=0;entryPerimeter=0;exitX=0.217;exitY=0.988;exitDx=0;exitDy=0;exitPerimeter=0;fontStyle=1" parent="1" source="8LFbPMQa60XVjXrs2oql-14" target="M61v3jZpd-GNT2IvRQZ2-3" edge="1">
          <mxGeometry width="50" height="50" relative="1" as="geometry">
            <mxPoint x="620" y="-160" as="sourcePoint" />
            <mxPoint x="670" y="-210" as="targetPoint" />
          </mxGeometry>
        </mxCell>
        <mxCell id="8LFbPMQa60XVjXrs2oql-17" value="&lt;font style=&quot;font-size: 23px;&quot;&gt;Entities, DTOs&lt;/font&gt;" style="text;html=1;align=center;verticalAlign=middle;whiteSpace=wrap;rounded=0;fontStyle=1" parent="1" vertex="1">
          <mxGeometry x="375.5" y="-185" width="100" height="50" as="geometry" />
        </mxCell>
        <mxCell id="8LFbPMQa60XVjXrs2oql-18" value="&lt;font color=&quot;#050505&quot;&gt;&lt;span style=&quot;font-size: 30px;&quot;&gt;Chirp.Core&lt;/span&gt;&lt;/font&gt;" style="text;html=1;align=center;verticalAlign=middle;whiteSpace=wrap;rounded=0;fillColor=#e51400;fontColor=#ffffff;strokeColor=#B20000;fontStyle=1" parent="1" vertex="1">
          <mxGeometry x="890" y="-250" width="160" height="60" as="geometry" />
        </mxCell>
        <mxCell id="8LFbPMQa60XVjXrs2oql-19" value="" style="endArrow=classic;html=1;rounded=0;exitX=0.25;exitY=1;exitDx=0;exitDy=0;entryX=0.995;entryY=0.532;entryDx=0;entryDy=0;entryPerimeter=0;fontStyle=1" parent="1" source="8LFbPMQa60XVjXrs2oql-18" target="M61v3jZpd-GNT2IvRQZ2-5" edge="1">
          <mxGeometry width="50" height="50" relative="1" as="geometry">
            <mxPoint x="560" y="-120" as="sourcePoint" />
            <mxPoint x="610" y="-170" as="targetPoint" />
          </mxGeometry>
        </mxCell>
        <mxCell id="8LFbPMQa60XVjXrs2oql-20" value="&lt;font style=&quot;font-size: 23px;&quot;&gt;Infrastructure&lt;/font&gt;" style="text;html=1;align=center;verticalAlign=middle;whiteSpace=wrap;rounded=0;fontStyle=1" parent="1" vertex="1">
          <mxGeometry x="298" y="170" width="150" height="30" as="geometry" />
        </mxCell>
        <mxCell id="8LFbPMQa60XVjXrs2oql-23" value="" style="shape=flexArrow;endArrow=classic;html=1;rounded=0;fillColor=#000000;exitX=0.576;exitY=-0.033;exitDx=0;exitDy=0;exitPerimeter=0;fontStyle=1" parent="1" source="8LFbPMQa60XVjXrs2oql-20" edge="1">
          <mxGeometry width="50" height="50" relative="1" as="geometry">
            <mxPoint x="450" y="160" as="sourcePoint" />
            <mxPoint x="315" y="100" as="targetPoint" />
          </mxGeometry>
        </mxCell>
        <mxCell id="8LFbPMQa60XVjXrs2oql-26" value="&lt;font style=&quot;font-size: 23px;&quot;&gt;Repository interface&lt;/font&gt;" style="text;html=1;align=center;verticalAlign=middle;whiteSpace=wrap;rounded=0;fontStyle=1" parent="1" vertex="1">
          <mxGeometry x="251" y="20" width="197" height="40" as="geometry" />
        </mxCell>
        <mxCell id="8LFbPMQa60XVjXrs2oql-28" value="" style="shape=flexArrow;endArrow=classic;html=1;rounded=0;fillColor=#000000;fontStyle=1" parent="1" source="8LFbPMQa60XVjXrs2oql-26" edge="1">
          <mxGeometry width="50" height="50" relative="1" as="geometry">
            <mxPoint x="450" y="-30" as="sourcePoint" />
            <mxPoint x="415" y="-50" as="targetPoint" />
          </mxGeometry>
        </mxCell>
        <mxCell id="8LFbPMQa60XVjXrs2oql-29" value="&lt;font style=&quot;font-size: 23px;&quot;&gt;Service interface&lt;/font&gt;" style="text;html=1;align=center;verticalAlign=middle;whiteSpace=wrap;rounded=0;fontStyle=1" parent="1" vertex="1">
          <mxGeometry x="350" y="100" width="207" height="40" as="geometry" />
        </mxCell>
        <mxCell id="8LFbPMQa60XVjXrs2oql-30" value="" style="shape=flexArrow;endArrow=classic;html=1;rounded=0;fillColor=#000000;fontStyle=1" parent="1" source="8LFbPMQa60XVjXrs2oql-29" edge="1">
          <mxGeometry width="50" height="50" relative="1" as="geometry">
            <mxPoint x="501" y="90" as="sourcePoint" />
            <mxPoint x="450" y="40" as="targetPoint" />
          </mxGeometry>
        </mxCell>
        <mxCell id="8LFbPMQa60XVjXrs2oql-31" value="" style="rounded=0;whiteSpace=wrap;html=1;fillColor=#dae8fc;strokeColor=#6c8ebf;" parent="1" vertex="1">
          <mxGeometry x="30" y="-850" width="450" height="270" as="geometry" />
        </mxCell>
        <mxCell id="8LFbPMQa60XVjXrs2oql-32" value="&lt;font style=&quot;font-size: 23px;&quot;&gt;Repositories:&lt;/font&gt;" style="text;html=1;align=center;verticalAlign=middle;whiteSpace=wrap;rounded=0;labelBorderColor=none;fontStyle=1" parent="1" vertex="1">
          <mxGeometry x="40" y="-830" width="150" height="50" as="geometry" />
        </mxCell>
        <mxCell id="8LFbPMQa60XVjXrs2oql-34" value="&lt;font style=&quot;font-size: 18px;&quot;&gt;ICheepRepository&lt;/font&gt;&lt;div&gt;&lt;font style=&quot;font-size: 18px;&quot;&gt;CheepRepository&lt;/font&gt;&lt;/div&gt;&lt;div&gt;&lt;font style=&quot;font-size: 18px;&quot;&gt;IAuthorRepository&lt;/font&gt;&lt;/div&gt;&lt;div&gt;&lt;font style=&quot;font-size: 18px;&quot;&gt;AuthorRepository&lt;/font&gt;&lt;/div&gt;" style="text;html=1;align=center;verticalAlign=middle;whiteSpace=wrap;rounded=0;labelBorderColor=none;fontStyle=1" parent="1" vertex="1">
          <mxGeometry x="41" y="-780" width="160" height="80" as="geometry" />
        </mxCell>
        <mxCell id="8LFbPMQa60XVjXrs2oql-35" value="&lt;font style=&quot;font-size: 23px;&quot;&gt;Services:&lt;/font&gt;" style="text;html=1;align=center;verticalAlign=middle;whiteSpace=wrap;rounded=0;labelBorderColor=none;fontStyle=1" parent="1" vertex="1">
          <mxGeometry x="269.5" y="-820" width="100.5" height="30" as="geometry" />
        </mxCell>
        <mxCell id="8LFbPMQa60XVjXrs2oql-36" value="&lt;span style=&quot;font-size: 18px;&quot;&gt;ICheepService&lt;/span&gt;&lt;div&gt;&lt;span style=&quot;font-size: 18px; background-color: initial;&quot;&gt;CheepService&lt;/span&gt;&lt;/div&gt;&lt;div&gt;&lt;span style=&quot;font-size: 18px; background-color: initial;&quot;&gt;IAuthorService&lt;/span&gt;&lt;/div&gt;&lt;div&gt;&lt;span style=&quot;font-size: 18px; background-color: initial;&quot;&gt;AuthorService&lt;/span&gt;&lt;/div&gt;" style="text;html=1;align=center;verticalAlign=middle;whiteSpace=wrap;rounded=0;labelBorderColor=none;fontStyle=1" parent="1" vertex="1">
          <mxGeometry x="269.5" y="-780" width="120.5" height="80" as="geometry" />
        </mxCell>
        <mxCell id="8LFbPMQa60XVjXrs2oql-37" value="&lt;font style=&quot;font-size: 23px;&quot;&gt;Entities:&lt;/font&gt;" style="text;html=1;align=center;verticalAlign=middle;whiteSpace=wrap;rounded=0;labelBorderColor=none;fontStyle=1" parent="1" vertex="1">
          <mxGeometry x="41" y="-696" width="90" height="50" as="geometry" />
        </mxCell>
        <mxCell id="8LFbPMQa60XVjXrs2oql-38" value="&lt;span style=&quot;font-size: 18px;&quot;&gt;Author&lt;/span&gt;&lt;div&gt;&lt;span style=&quot;font-size: 18px;&quot;&gt;Cheep&lt;/span&gt;&lt;/div&gt;" style="text;html=1;align=center;verticalAlign=middle;whiteSpace=wrap;rounded=0;labelBorderColor=none;fontStyle=1" parent="1" vertex="1">
          <mxGeometry x="40" y="-646" width="70" height="40" as="geometry" />
        </mxCell>
        <mxCell id="8LFbPMQa60XVjXrs2oql-39" value="&lt;font style=&quot;font-size: 23px;&quot;&gt;DTOs:&lt;/font&gt;" style="text;html=1;align=center;verticalAlign=middle;whiteSpace=wrap;rounded=0;labelBorderColor=none;fontStyle=1" parent="1" vertex="1">
          <mxGeometry x="269.5" y="-696" width="70.5" height="50" as="geometry" />
        </mxCell>
        <mxCell id="8LFbPMQa60XVjXrs2oql-40" value="&lt;span style=&quot;font-size: 18px;&quot;&gt;CheepDTO&lt;/span&gt;&lt;div&gt;&lt;span style=&quot;font-size: 18px;&quot;&gt;AuthorDTO&lt;/span&gt;&lt;/div&gt;" style="text;html=1;align=center;verticalAlign=middle;whiteSpace=wrap;rounded=0;labelBorderColor=none;fontStyle=1" parent="1" vertex="1">
          <mxGeometry x="269.5" y="-646" width="90" height="40" as="geometry" />
        </mxCell>
      </root>
    </mxGraphModel>
  </diagram>
</mxfile>
